<?xml version="1.0" encoding="utf-8"?>
<!-- Generator: Adobe Illustrator 25.4.1, SVG Export Plug-In . SVG Version: 6.00 Build 0)  -->
<svg version="1.1" id="Ebene_1" xmlns="http://www.w3.org/2000/svg" xmlns:xlink="http://www.w3.org/1999/xlink" x="0px" y="0px"
	 viewBox="0 0 143 31.7" style="enable-background:new 0 0 143 31.7;" xml:space="preserve">
<style type="text/css">
	.st0{fill:#184E8B;}
	.st1{fill:#6CABE9;}
</style>
<path class="st0" d="M51.8,19.9v-0.1c1.8-0.9,2.9-2.7,2.9-4.7c0-4.2-3.5-5.4-8-5.4h-7.5v15.8h4.9v-3.1h2.8c2.7,0,4.1,0.4,4.1,2.3
	s-1.4,2.6-4.1,2.6H46v4.1h1.3c4.7,0,8.5-2,8.5-6.4C55.8,22.6,54.2,20.4,51.8,19.9z M46.4,18.4h-2.3v-4.9h2.3c2.3,0,3.4,0.6,3.4,2.3
	S48.8,18.3,46.4,18.4L46.4,18.4z"/>
<path class="st0" d="M1.1,9.6H6V18h7.5V9.6h4.9v21.8h-4.9v-9.1H6v9.1H1.1V9.6z"/>
<polygon class="st0" points="44.1,27.3 27.1,27.3 36.7,12.6 36.7,9.6 21,9.6 21,13.8 30.7,13.8 21,28.4 21,31.4 44.1,31.4 "/>
<path class="st1" d="M63.3,9.6h1.1v3.6h4V9.6h1.1v8.5h-1.2v-4h-4v4h-1V9.6z"/>
<path class="st1" d="M71.2,15c-0.2-1.6,1-3.1,2.7-3.3c0.1,0,0.1,0,0.2,0c1.6,0,2.5,1.1,2.5,3c0,0.2,0,0.4,0,0.6h-4.2
	c-0.1,1.2,0.8,2.1,2,2.2c0,0,0.1,0,0.1,0c0.6,0,1.1-0.2,1.5-0.6l0.4,0.7c-0.6,0.4-1.3,0.7-2.1,0.7c-1.7,0-3-1.3-3-3
	C71.2,15.2,71.2,15.1,71.2,15z M75.6,14.5c0-1.3-0.6-2-1.6-2c-1,0.1-1.8,0.9-1.8,2H75.6z"/>
<path class="st1" d="M78.1,16.9v-8h1.1v8c0,0.3,0.1,0.5,0.3,0.5c0.1,0,0.2,0,0.2,0l0.1,0.8c-0.2,0.1-0.4,0.1-0.6,0.1
	C78.5,18.3,78.1,17.8,78.1,16.9z"/>
<path class="st1" d="M81.4,11.8h0.9l0.1,0.9l0,0c0.5-0.6,1.2-1,2-1.1c0.8-0.1,1.5,0.4,1.7,1.2c0.5-0.7,1.3-1.1,2.1-1.2
	c1.3,0,1.9,0.9,1.9,2.5v4h-1.1v-3.9c0-1.2-0.4-1.7-1.2-1.7c-0.6,0.1-1.2,0.5-1.6,1v4.6h-1v-3.9c0-1.2-0.4-1.7-1.2-1.7
	c-0.6,0.1-1.2,0.5-1.6,1v4.6h-1.1L81.4,11.8z"/>
<path class="st1" d="M92.2,8.9h1.1v2.5v1.3c0.5-0.6,1.3-1,2.1-1c1.3,0,1.9,0.9,1.9,2.5v4h-1.1v-3.9c0-1.2-0.4-1.7-1.2-1.7
	c-0.7,0.1-1.3,0.4-1.7,1v4.6h-1.1V8.9z"/>
<path class="st1" d="M98.8,15c-0.4-1.6,0.7-3.2,2.3-3.6s3.2,0.7,3.6,2.3c0.1,0.4,0.1,0.9,0,1.3c0.4,1.6-0.7,3.2-2.3,3.6
	s-3.2-0.7-3.6-2.3C98.7,15.8,98.7,15.4,98.8,15z M103.6,15c0-1.5-0.7-2.4-1.8-2.4s-1.8,1-1.8,2.4s0.7,2.4,1.8,2.4
	S103.6,16.4,103.6,15z"/>
<path class="st1" d="M106.3,16.9v-8h1v8c0,0.3,0.1,0.5,0.3,0.5c0.1,0,0.2,0,0.2,0l0.1,0.8c-0.2,0.1-0.4,0.1-0.6,0.1
	C106.6,18.3,106.3,17.8,106.3,16.9z"/>
<path class="st1" d="M109.8,16.2v-3.5h-0.9v-0.8l1-0.1l0.1-1.8h0.9v1.8h1.7v0.9h-1.7v3.5c0,0.8,0.3,1.2,1,1.2c0.3,0,0.5-0.1,0.7-0.2
	l0.2,0.8c-0.4,0.1-0.8,0.2-1.2,0.2C110.2,18.3,109.8,17.4,109.8,16.2z"/>
<path class="st1" d="M113.3,17.6l3.3-4.9h-3v-0.9h4.3v0.6l-3.3,4.9h3.4v0.9h-4.7V17.6z"/>
<path class="st1" d="M62.7,30.9l4.5-7h-4.1V23h5.4v0.6l-4.5,7h4.5v0.9h-5.9V30.9z"/>
<path class="st1" d="M69.5,28.4c-0.2-1.6,1-3.1,2.7-3.3c0.1,0,0.1,0,0.2,0c1.6,0,2.5,1.2,2.5,3c0,0.2,0,0.4-0.1,0.6h-4.3
	c-0.1,1.2,0.8,2.1,2,2.2c0,0,0.1,0,0.1,0c0.6,0,1.1-0.2,1.6-0.5l0.4,0.7c-0.6,0.4-1.3,0.7-2.1,0.7c-1.7,0-3-1.3-3-3
	C69.4,28.6,69.4,28.5,69.5,28.4z M73.9,27.9c0-1.3-0.6-2-1.6-2c-1,0.1-1.9,1-1.8,2H73.9z"/>
<path class="st1" d="M76.4,25.2h0.9l0.1,0.9l0,0c0.5-0.6,1.3-1,2.1-1.1c1.3,0,1.9,0.8,1.9,2.5v4h-1.1v-3.9c0-1.2-0.4-1.7-1.2-1.7
	c-0.7,0.1-1.3,0.4-1.7,1v4.6h-1.1V25.2z"/>
<path class="st1" d="M83.7,29.6v-3.5h-0.9v-0.8l1-0.1l0.1-1.8h0.9v1.8h1.7v0.9h-1.7v3.5c0,0.8,0.2,1.2,1,1.2c0.2,0,0.5-0.1,0.7-0.2
	l0.2,0.8c-0.4,0.1-0.8,0.2-1.2,0.2C84.1,31.7,83.7,30.8,83.7,29.6z"/>
<path class="st1" d="M87.9,25.2h0.9l0.1,1.2l0,0c0.3-0.7,1-1.2,1.8-1.3c0.2,0,0.5,0,0.7,0.1l-0.2,0.9c-0.2-0.1-0.4-0.1-0.6-0.1
	c-0.5,0-1.2,0.4-1.6,1.5v4.1h-1.1L87.9,25.2z"/>
<path class="st1" d="M92.3,29.2v-4h1.1v3.9c0,1.2,0.3,1.7,1.2,1.7c0.7,0,1.1-0.3,1.7-1.1v-4.5h1v6.3h-0.9l-0.1-1l0,0
	c-0.5,0.7-1.2,1.1-2.1,1.2C92.9,31.7,92.3,30.8,92.3,29.2z"/>
<path class="st1" d="M99.5,25.2h0.8l0.1,0.9l0,0c0.5-0.6,1.2-1,2-1.1c0.8-0.1,1.5,0.4,1.8,1.2c0.5-0.7,1.2-1.1,2.1-1.2
	c1.3,0,1.9,0.8,1.9,2.5v4h-1.1v-3.9c0-1.2-0.4-1.7-1.2-1.7c-0.6,0.1-1.2,0.5-1.6,1v4.6h-1v-3.9c0-1.2-0.4-1.7-1.2-1.7
	c-0.6,0.1-1.2,0.5-1.6,1v4.6h-1.1L99.5,25.2z"/>
<path class="st1" d="M112.9,23h2.5c1.7,0,2.9,0.6,2.9,2.1c0,0.8-0.5,1.5-1.2,1.8v0c1,0.1,1.7,1,1.7,2c0,1.7-1.3,2.5-3.2,2.5h-2.7
	L112.9,23z M115.3,26.6c1.4,0,2.1-0.5,2.1-1.4s-0.7-1.3-2.1-1.3H114v2.8L115.3,26.6z M115.5,30.6c1.5,0,2.3-0.5,2.3-1.7
	s-0.8-1.5-2.3-1.5h-1.5v3.2H115.5z"/>
<path class="st1" d="M120,28.4c-0.2-1.6,1-3.1,2.7-3.3c0.1,0,0.1,0,0.2,0c1.6,0,2.5,1.2,2.5,3c0,0.2,0,0.4,0,0.6h-4.3
	c-0.1,1.2,0.8,2.1,2,2.2c0,0,0.1,0,0.1,0c0.6,0,1.1-0.2,1.6-0.5l0.4,0.7c-0.6,0.4-1.3,0.7-2.1,0.7c-1.7,0.1-3-1.3-3.1-2.9
	C120,28.7,120,28.5,120,28.4z M124.4,27.9c0-1.3-0.6-2-1.6-2c-1,0.1-1.9,1-1.8,2H124.4z"/>
<path class="st1" d="M126.9,25.2h0.9l0.1,1.2l0,0c0.3-0.7,1-1.2,1.8-1.3c0.2,0,0.5,0,0.7,0.1l-0.2,0.9c-0.2-0.1-0.4-0.1-0.6-0.1
	c-0.5,0-1.2,0.4-1.6,1.5v4.1h-1.1L126.9,25.2z"/>
<path class="st1" d="M131.4,30.3v-8h1.1v8.1c0,0.3,0.1,0.5,0.3,0.5c0.1,0,0.2,0,0.2,0l0.1,0.8c-0.2,0.1-0.4,0.1-0.6,0.1
	C131.8,31.7,131.4,31.2,131.4,30.3z"/>
<path class="st1" d="M134.6,23.2c0-0.4,0.3-0.8,0.7-0.8c0.4,0,0.8,0.3,0.8,0.7c0,0.4-0.3,0.8-0.7,0.8c0,0,0,0,0,0
	C134.9,23.9,134.6,23.6,134.6,23.2C134.6,23.3,134.6,23.2,134.6,23.2z M134.8,25.2h1.1v6.3h-1.1V25.2z"/>
<path class="st1" d="M138,25.2h0.9l0.1,0.9l0,0c0.5-0.6,1.3-1,2.1-1.1c1.3,0,1.9,0.8,1.9,2.5v4h-1.1v-3.9c0-1.2-0.4-1.7-1.2-1.7
	c-0.7,0.1-1.3,0.4-1.7,1v4.6h-1.1L138,25.2z"/>
</svg>
